<?xml version="1.0" encoding="iso-8859-1"?>
<!-- Generator: Adobe Illustrator 18.1.1, SVG Export Plug-In . SVG Version: 6.00 Build 0)  -->
<svg version="1.1" id="Capa_1" xmlns="http://www.w3.org/2000/svg" xmlns:xlink="http://www.w3.org/1999/xlink" x="0px" y="0px"
	 viewBox="0 0 213.445 213.445" style="enable-background:new 0 0 213.445 213.445;" xml:space="preserve">
<g>
	<path style="fill:#010002;" d="M14.749,95.514l86.536,86.536c12.744,12.749,35.784,24.476,53.586,27.288l23.111,3.65
		c1.915,0.305,3.835,0.457,5.706,0.457c9.143,0,17.236-3.573,22.779-10.062c5.733-6.712,8.05-15.735,6.521-25.406l-3.65-23.105
		c-2.812-17.802-14.539-40.842-27.288-53.586L95.513,14.749l-0.098,0.098C73.028-5.517,38.289-4.951,16.669,16.669
		c-21.62,21.615-22.186,56.36-1.828,78.741L14.749,95.514z M182.478,159.113l3.65,23.105c0.326,2.067-0.06,3.171-0.337,3.497
		c-0.294,0.343-1.773,0.696-3.568,0.413l-23.111-3.65c-11.982-1.893-30.018-11.079-38.601-19.657L53.214,95.514l42.305-42.305
		l67.308,67.303C171.399,129.089,180.586,147.125,182.478,159.113z M27.144,57.054c0-7.99,3.111-15.507,8.762-21.158
		c11.003-11.003,28.452-11.487,40.189-1.73L34.171,76.091C29.701,70.734,27.144,64.12,27.144,57.054z"/>
</g>
<g>
</g>
<g>
</g>
<g>
</g>
<g>
</g>
<g>
</g>
<g>
</g>
<g>
</g>
<g>
</g>
<g>
</g>
<g>
</g>
<g>
</g>
<g>
</g>
<g>
</g>
<g>
</g>
<g>
</g>
</svg>
